<?xml version="1.0" encoding="utf-8"?>
<svg width="109px" height="27px" viewBox="0 0 109 27" version="1.1" xmlns:xlink="http://www.w3.org/1999/xlink" xmlns="http://www.w3.org/2000/svg">
  <desc>Created with Lunacy</desc>
  <g id="KARMOON" fill="#FFFFFF">
    <path d="M62.3338 18.7734Q64.1258 20.7363 67.1043 20.7363Q70.1512 20.7363 71.9676 18.7441Q73.784 16.752 73.784 13.3242Q73.784 10.1699 72.0115 8.2168Q70.2391 6.26367 67.3387 6.26367Q64.1941 6.26367 62.368 8.27539Q60.5418 10.2871 60.5418 13.666Q60.5418 16.8105 62.3338 18.7734ZM83.4824 20.7363Q80.5039 20.7363 78.7119 18.7734Q76.9199 16.8105 76.9199 13.666Q76.9199 10.2871 78.7461 8.27539Q80.5723 6.26367 83.7168 6.26367Q86.6172 6.26367 88.3896 8.2168Q90.1621 10.1699 90.1621 13.3242Q90.1621 16.752 88.3457 18.7441Q86.5293 20.7363 83.4824 20.7363ZM11.582 20.502L9.29688 20.502L3.88672 14.0957Q3.58398 13.7344 3.51563 13.6074L3.47656 13.6074L3.47656 20.502L1.83594 20.502L1.83594 6.49805L3.47656 6.49805L3.47656 13.0801L3.51563 13.0801Q3.65234 12.8652 3.88672 12.6016L9.12109 6.49805L11.1621 6.49805L5.15625 13.2168L11.582 20.502ZM25.5773 20.502L23.7609 20.502L22.2766 16.5762L16.3391 16.5762L14.9426 20.502L13.1164 20.502L18.4875 6.49805L20.1867 6.49805L25.5773 20.502ZM37.0238 20.502L38.977 20.502L36.35 16.293Q36.0668 15.834 35.8373 15.4873Q35.6078 15.1406 35.3734 14.8672Q35.1391 14.5938 34.8803 14.3936Q34.6215 14.1934 34.2699 14.0371L34.2699 13.998Q34.9828 13.8125 35.5541 13.4756Q36.1254 13.1387 36.5307 12.6602Q36.9359 12.1816 37.1557 11.5713Q37.3754 10.9609 37.3754 10.2285Q37.3754 9.29102 37.0531 8.59277Q36.7309 7.89453 36.1596 7.42578Q35.5883 6.95703 34.8119 6.72754Q34.0355 6.49805 33.1176 6.49805L28.9379 6.49805L28.9379 20.502L30.5785 20.502L30.5785 14.5449L31.9262 14.5449Q32.3852 14.5449 32.7514 14.6572Q33.1176 14.7695 33.435 15.0137Q33.7523 15.2578 34.0551 15.6436Q34.3578 16.0293 34.6801 16.5762L37.0238 20.502ZM56.4781 20.502L54.8473 20.502L54.8473 11.1074Q54.8473 9.99414 54.984 8.38281L54.9449 8.38281Q54.7105 9.33008 54.525 9.74023L49.7398 20.502L48.9391 20.502L44.1637 9.81836Q43.9586 9.34961 43.7438 8.38281L43.7047 8.38281Q43.7828 9.22266 43.7828 11.127L43.7828 20.502L42.2008 20.502L42.2008 6.49805L44.3688 6.49805L48.6656 16.2637Q49.1637 17.3867 49.3102 17.9434L49.3688 17.9434Q49.7887 16.791 50.0426 16.2246L54.4273 6.49805L56.4781 6.49805L56.4781 20.502ZM103.493 20.502L105.505 20.502L105.505 6.49805L103.864 6.49805L103.864 16.3613Q103.864 17.8164 103.962 18.4219L103.923 18.4219Q103.796 18.168 103.357 17.4844L96.3449 6.49805L94.216 6.49805L94.216 20.502L95.8566 20.502L95.8566 10.3848Q95.8566 8.91016 95.7785 8.46094L95.8371 8.46094Q96.0129 8.91992 96.2863 9.33984L103.493 20.502ZM63.6375 9.33984Q65.0145 7.74805 67.2215 7.74805Q69.4871 7.74805 70.7762 9.26172Q72.0652 10.7754 72.0652 13.5488Q72.0652 16.2539 70.7371 17.7578Q69.409 19.2617 67.1043 19.2617Q64.9461 19.2617 63.6033 17.6846Q62.2605 16.1074 62.2605 13.5195Q62.2605 10.9316 63.6375 9.33984ZM83.5996 7.74805Q81.3926 7.74805 80.0156 9.33984Q78.6387 10.9316 78.6387 13.5195Q78.6387 16.1074 79.9814 17.6846Q81.3242 19.2617 83.4824 19.2617Q85.7871 19.2617 87.1152 17.7578Q88.4434 16.2539 88.4434 13.5488Q88.4434 10.7754 87.1543 9.26172Q85.8652 7.74805 83.5996 7.74805ZM30.5785 13.0605L30.5785 7.98242L32.8246 7.98242Q34.2016 7.98242 34.9291 8.6123Q35.6566 9.24219 35.6566 10.3652Q35.6566 10.9902 35.4418 11.4932Q35.227 11.9961 34.8461 12.3428Q34.4652 12.6895 33.9428 12.875Q33.4203 13.0605 32.8051 13.0605L30.5785 13.0605ZM21.7395 15.1016L19.5422 9.13477Q19.4348 8.8418 19.3273 8.19727L19.2883 8.19727Q19.1906 8.79297 19.0637 9.13477L16.8859 15.1016L21.7395 15.1016Z" />
  </g>
</svg>